<mxfile host="app.diagrams.net" modified="2024-06-08T19:51:23.147Z" agent="Mozilla/5.0 (Windows NT 10.0; Win64; x64) AppleWebKit/537.36 (KHTML, like Gecko) Chrome/124.0.0.0 Safari/537.36" etag="sfOZESAbAuQQoVrpBF2k" version="23.0.0" type="device">
  <diagram name="Page-1" id="8FcDVAPsx5udOyBXHBL6">
    <mxGraphModel dx="1434" dy="772" grid="1" gridSize="10" guides="1" tooltips="1" connect="1" arrows="1" fold="1" page="1" pageScale="1" pageWidth="827" pageHeight="1169" math="0" shadow="0">
      <root>
        <mxCell id="0" />
        <mxCell id="1" parent="0" />
        <mxCell id="lBliT0sZV7bvryCXicWB-1" value="ESP32" style="text;html=1;align=center;verticalAlign=middle;whiteSpace=wrap;rounded=0;" vertex="1" parent="1">
          <mxGeometry x="384" y="50" width="60" height="30" as="geometry" />
        </mxCell>
        <mxCell id="lBliT0sZV7bvryCXicWB-3" value="&lt;b&gt;Networking/MQTT&lt;/b&gt;" style="text;html=1;align=center;verticalAlign=middle;whiteSpace=wrap;rounded=0;" vertex="1" parent="1">
          <mxGeometry x="50" y="110" width="60" height="30" as="geometry" />
        </mxCell>
        <mxCell id="lBliT0sZV7bvryCXicWB-4" value="Motor Control" style="text;html=1;align=center;verticalAlign=middle;whiteSpace=wrap;rounded=0;" vertex="1" parent="1">
          <mxGeometry x="384" y="110" width="60" height="30" as="geometry" />
        </mxCell>
        <mxCell id="lBliT0sZV7bvryCXicWB-5" value="Some other thing" style="text;html=1;align=center;verticalAlign=middle;whiteSpace=wrap;rounded=0;" vertex="1" parent="1">
          <mxGeometry x="730" y="110" width="60" height="30" as="geometry" />
        </mxCell>
        <mxCell id="lBliT0sZV7bvryCXicWB-6" value="" style="verticalLabelPosition=bottom;verticalAlign=top;html=1;shape=mxgraph.basic.smiley" vertex="1" parent="1">
          <mxGeometry x="470" y="40" width="60" height="55" as="geometry" />
        </mxCell>
        <mxCell id="lBliT0sZV7bvryCXicWB-10" value="&lt;p style=&quot;margin:0px;margin-top:4px;text-align:center;&quot;&gt;&lt;b&gt;Class&lt;/b&gt;&lt;/p&gt;&lt;hr size=&quot;1&quot;/&gt;&lt;p style=&quot;margin:0px;margin-left:4px;&quot;&gt;+ field: Type&lt;/p&gt;&lt;hr size=&quot;1&quot;/&gt;&lt;p style=&quot;margin:0px;margin-left:4px;&quot;&gt;+ method(): Type&lt;/p&gt;" style="verticalAlign=top;align=left;overflow=fill;fontSize=12;fontFamily=Helvetica;html=1;whiteSpace=wrap;" vertex="1" parent="1">
          <mxGeometry x="10" y="140" width="160" height="90" as="geometry" />
        </mxCell>
      </root>
    </mxGraphModel>
  </diagram>
</mxfile>
